<?xml version="1.0" encoding="UTF-8" standalone="no"?>
<svg
   xmlns:dc="http://purl.org/dc/elements/1.1/"
   xmlns:cc="http://creativecommons.org/ns#"
   xmlns:rdf="http://www.w3.org/1999/02/22-rdf-syntax-ns#"
   xmlns:svg="http://www.w3.org/2000/svg"
   xmlns="http://www.w3.org/2000/svg"
   xmlns:sodipodi="http://sodipodi.sourceforge.net/DTD/sodipodi-0.dtd"
   xmlns:inkscape="http://www.inkscape.org/namespaces/inkscape"
   width="26"
   version="1.1"
   height="26"
   viewBox="0 0 18 18"
   enable-background="new 0 0 64 64"
   id="svg3932"
   sodipodi:docname="minus-line.svg"
   inkscape:version="0.92.1 r15371">
  <metadata
     id="metadata3938">
    <rdf:RDF>
      <cc:Work
         rdf:about="">
        <dc:format>image/svg+xml</dc:format>
        <dc:type
           rdf:resource="http://purl.org/dc/dcmitype/StillImage" />
        <dc:title />
      </cc:Work>
    </rdf:RDF>
  </metadata>
  <defs
     id="defs3936" />
  <sodipodi:namedview
     pagecolor="#ffffff"
     bordercolor="#666666"
     borderopacity="1"
     objecttolerance="10"
     gridtolerance="10"
     guidetolerance="10"
     inkscape:pageopacity="0"
     inkscape:pageshadow="2"
     inkscape:window-width="1920"
     inkscape:window-height="1051"
     id="namedview3934"
     showgrid="false"
     showguides="false"
     inkscape:zoom="47.166667"
     inkscape:cx="17.140222"
     inkscape:cy="18.465104"
     inkscape:window-x="0"
     inkscape:window-y="0"
     inkscape:window-maximized="1"
     inkscape:current-layer="svg3932" />
  <g
     id="g3930"
     style="opacity:1"
     transform="matrix(0.16012476,0,0,0.15331779,5.64173,4.9416749)">
    <g
       id="g3928"
       transform="matrix(0.84960247,0,0,0.9002871,-10.473498,-5.9575972)"
       style="fill:#1d1d1b">
      <path
         d="M 46.551,30.119 H 18.266 c -1.105,0 -2,0.896 -2,2 0,1.104 0.895,2 2,2 h 28.285 c 1.105,0 2,-0.896 2,-2 0,-1.104 -0.895,-2 -2,-2 z"
         id="path3922"
         inkscape:connector-curvature="0" />
      <path
         d="M 32,0 C 14.355,0 0,14.355 0,32 0,49.645 14.355,64 32,64 49.645,64 64,49.645 64,32 64,14.355 49.645,0 32,0 Z m 0,60 C 16.561,60 4,47.439 4,32 4,16.561 16.561,4 32,4 47.439,4 60,16.561 60,32 60,47.439 47.439,60 32,60 Z"
         id="path3926"
         inkscape:connector-curvature="0" />
    </g>
  </g>
  <path
     style="opacity:1;fill:none;stroke:#666666;stroke-width:1.0197171px;stroke-linecap:butt;stroke-linejoin:miter;stroke-dasharray:1.01971712, 1.01971712;stroke-opacity:1"
     d="m 12.76325,8.9151943 5.279152,0.021202"
     id="path3947"
     inkscape:connector-curvature="0"
     sodipodi:nodetypes="cc" />
  <path
     sodipodi:nodetypes="cc"
     inkscape:connector-curvature="0"
     id="path3968"
     d="m 8.7331373,12.879866 0.02489,5.279136"
     style="opacity:1;fill:none;stroke:#666666;stroke-width:1.0197171px;stroke-linecap:butt;stroke-linejoin:miter;stroke-dasharray:1.01971712, 1.01971712;stroke-opacity:1" />
  <path
     style="opacity:1;fill:none;stroke:#666666;stroke-width:1.0197171px;stroke-linecap:butt;stroke-linejoin:miter;stroke-dasharray:1.01971712, 1.01971712;stroke-opacity:1"
     d="m 8.7331373,-1.120134 0.02489,5.279136"
     id="path3970"
     inkscape:connector-curvature="0"
     sodipodi:nodetypes="cc" />
</svg>
