<?xml version="1.0" encoding="UTF-8" standalone="no"?>
<svg
   xmlns:dc="http://purl.org/dc/elements/1.1/"
   xmlns:cc="http://creativecommons.org/ns#"
   xmlns:rdf="http://www.w3.org/1999/02/22-rdf-syntax-ns#"
   xmlns:svg="http://www.w3.org/2000/svg"
   xmlns="http://www.w3.org/2000/svg"
   xmlns:sodipodi="http://sodipodi.sourceforge.net/DTD/sodipodi-0.dtd"
   xmlns:inkscape="http://www.inkscape.org/namespaces/inkscape"
   width="26"
   version="1.1"
   height="26"
   viewBox="0 0 18 18"
   enable-background="new 0 0 64 64"
   id="svg3932"
   sodipodi:docname="plus-bottom.svg"
   inkscape:version="0.92.1 r15371">
  <metadata
     id="metadata3938">
    <rdf:RDF>
      <cc:Work
         rdf:about="">
        <dc:format>image/svg+xml</dc:format>
        <dc:type
           rdf:resource="http://purl.org/dc/dcmitype/StillImage" />
        <dc:title></dc:title>
      </cc:Work>
    </rdf:RDF>
  </metadata>
  <defs
     id="defs3936" />
  <sodipodi:namedview
     pagecolor="#ffffff"
     bordercolor="#666666"
     borderopacity="1"
     objecttolerance="10"
     gridtolerance="10"
     guidetolerance="10"
     inkscape:pageopacity="0"
     inkscape:pageshadow="2"
     inkscape:window-width="1920"
     inkscape:window-height="1051"
     id="namedview3934"
     showgrid="false"
     showguides="false"
     inkscape:zoom="47.166667"
     inkscape:cx="17.140222"
     inkscape:cy="15.072878"
     inkscape:window-x="0"
     inkscape:window-y="0"
     inkscape:window-maximized="1"
     inkscape:current-layer="svg3932" />
  <path
     style="opacity:1;fill:none;stroke:#666666;stroke-width:1.0197171px;stroke-linecap:butt;stroke-linejoin:miter;stroke-dasharray:1.01971712, 1.01971712;stroke-opacity:1"
     d="m 12.851317,8.9005164 5.279152,0.021202"
     id="path3947"
     inkscape:connector-curvature="0"
     sodipodi:nodetypes="cc" />
  <path
     style="opacity:1;fill:none;stroke:#666666;stroke-width:1.0197171px;stroke-linecap:butt;stroke-linejoin:miter;stroke-dasharray:1.01971712, 1.01971712;stroke-opacity:1"
     d="m 8.7331373,-1.120134 0.02489,5.279136"
     id="path3970"
     inkscape:connector-curvature="0"
     sodipodi:nodetypes="cc" />
  <g
     transform="matrix(0.19562019,0,0,0.19969812,4.1422262,3.9688518)"
     id="g231"
     style="fill:#000000;stroke:#000000">
    <g
       id="g229">
      <path
         inkscape:connector-curvature="0"
         d="M 22.119,44.237 C 9.922,44.237 0,34.315 0,22.12 0,9.924 9.922,0.001 22.119,0.001 c 12.197,0 22.119,9.922 22.119,22.119 0,12.197 -9.924,22.117 -22.119,22.117 z m 0,-42.736 C 10.75,1.501 1.5,10.751 1.5,22.12 c 0,11.369 9.25,20.619 20.619,20.619 11.369,0 20.619,-9.25 20.619,-20.619 0,-11.369 -9.25,-20.619 -20.619,-20.619 z"
         id="path219" />
      <g
         id="g223">
        <path
           inkscape:connector-curvature="0"
           d="M 31.434,22.869 H 12.805 c -0.414,0 -0.75,-0.336 -0.75,-0.75 0,-0.414 0.336,-0.75 0.75,-0.75 h 18.628 c 0.414,0 0.75,0.336 0.75,0.75 0,0.414 -0.335,0.75 -0.749,0.75 z"
           id="path221" />
      </g>
      <g
         id="g227">
        <path
           inkscape:connector-curvature="0"
           d="m 22.119,32.183 c -0.414,0 -0.75,-0.336 -0.75,-0.75 V 12.806 c 0,-0.414 0.336,-0.75 0.75,-0.75 0.414,0 0.75,0.336 0.75,0.75 v 18.626 c 0,0.415 -0.336,0.751 -0.75,0.751 z"
           id="path225" />
      </g>
    </g>
  </g>
</svg>
